<svg width="26" height="34" viewBox="0 0 26 34" fill="none" xmlns="http://www.w3.org/2000/svg">
<g id="medal">
<path id="Combined Shape" fill-rule="evenodd" clip-rule="evenodd" d="M23.7329 18.591L25.9756 16.3691L24.9103 13.3898L25.9756 10.4105L23.7329 8.18869L23.4029 5.04043L20.426 4.01877L18.7752 1.32308L15.6508 1.70266L12.9998 0L10.3488 1.70266L7.22441 1.32308L5.57367 4.01871L2.59667 5.04037L2.26666 8.18869L0.0239258 10.4105L1.0892 13.3898L0.0239258 16.3691L2.26666 18.5909L2.59661 21.7393L4.24945 22.3065L1.41658 31.217L6.2663 30.9486L10.0607 34L12.4654 26.4364L12.9998 26.7796L13.5342 26.4364L15.9389 34L19.7332 30.9486L24.5829 31.217L21.75 22.3065L23.4028 21.7393L23.7329 18.591ZM9.05015 30.6349L6.91261 28.9159L4.18043 29.0671L5.97628 23.4186L7.22428 25.4566L10.3487 25.077L10.7377 25.3269L9.05015 30.6349ZM16.9494 30.6349L19.0869 28.9159L21.8191 29.0671L20.0232 23.4186L18.7751 25.4566L15.6508 25.077L15.2618 25.3269L16.9494 30.6349ZM21.5651 20.2633L19.1125 21.105L17.7536 23.324L15.1834 23.0118L12.9998 24.4143L10.8162 23.0118L8.24586 23.3241L6.88694 21.105L4.43436 20.2633L4.16268 17.6712L2.31767 15.8435L3.195 13.3898L2.31767 10.9362L4.16268 9.10835L4.43436 6.51631L6.88694 5.67461L8.24586 3.45558L10.8161 3.76782L12.9998 2.36546L15.1834 3.76789L17.7537 3.45565L19.1126 5.67475L21.5652 6.51645L21.8369 9.10848L23.6819 10.9362L22.8045 13.3899L23.6819 15.8435L21.8369 17.6714L21.5651 20.2633ZM12.9998 5.63065C8.74818 5.63065 5.28926 9.1114 5.28926 13.3899C5.28926 17.6684 8.74818 21.149 12.9998 21.149C17.2514 21.149 20.7103 17.6682 20.7103 13.3898C20.7103 9.1114 17.2514 5.63065 12.9998 5.63065ZM12.9998 19.1551C9.84077 19.1551 7.27067 16.5688 7.27067 13.3898C7.27067 10.2108 9.84077 7.62457 12.9998 7.62457C16.1588 7.62457 18.7289 10.2109 18.7289 13.3898C18.7289 16.5688 16.1588 19.1551 12.9998 19.1551Z" fill="white"/>
</g>
</svg>
