<svg width="22" height="27" viewBox="0 0 22 27" fill="none" xmlns="http://www.w3.org/2000/svg">
<path fill-rule="evenodd" clip-rule="evenodd" d="M18.2244 1.88375V0H4.43361V1.89331H0.609863V26.9406H21.9853V1.8965L18.2244 1.88375ZM12.3323 25.0601V21.1735H10.4519V25.0601H2.4903V3.77381H6.31405V1.8805H16.3441V3.75781L20.1049 3.77063V25.0601H12.3323ZM10.4515 6.13938H6.69086V8.02H10.4515V6.13938ZM6.69086 13.575H10.4515V15.4556H6.69086V13.575ZM12.3321 13.575H16.0927V15.4556H12.3321V13.575ZM10.4515 17.3363H6.69086V19.2169H10.4515V17.3363ZM12.3321 17.3363H16.0927V19.2169H12.3321V17.3363ZM12.3321 6.13938H16.0927V8.02H12.3321V6.13938ZM10.4515 9.9H6.69086V11.7806H10.4515V9.9ZM12.3321 9.9H16.0927V11.7806H12.3321V9.9Z" fill="white"/>
</svg>
