<svg width="32" height="32" viewBox="0 0 32 32" fill="none" xmlns="http://www.w3.org/2000/svg">
<g id="discount copy">
<path id="Combined Shape" fill-rule="evenodd" clip-rule="evenodd" d="M29.1462 11.3593C29.4914 10.3022 29.5717 9.17782 29.3769 8.06911C29.1347 6.69162 28.4824 5.43913 27.4904 4.44713C26.4984 3.45513 25.246 2.80284 23.8684 2.56069C22.7597 2.36569 21.6352 2.4461 20.5782 2.7913L17.7869 0L0 17.7869L2.79136 20.5783C2.44616 21.6354 2.36588 22.7598 2.56075 23.8685C2.8029 25.246 3.45519 26.4985 4.44719 27.4905C5.43919 28.4825 6.69168 29.1348 8.06918 29.3769C9.17795 29.5718 10.3023 29.4915 11.3594 29.1463L14.1507 31.9377L31.9376 14.1507L29.1462 11.3593ZM14.1506 29.0694L11.8347 26.7534L11.1976 27.0379C9.40532 27.8383 7.26887 27.4438 5.88126 26.0562C4.49379 24.6687 4.09924 22.5322 4.89962 20.7399L5.18406 20.1028L2.86815 17.7869L17.7869 2.86821L20.1029 5.18412L20.74 4.89968C22.5322 4.09931 24.6688 4.49379 26.0564 5.88133C27.4438 7.2688 27.8383 9.40526 27.038 11.1976L26.7534 11.8348L29.0695 14.1507L14.1506 29.0694ZM14.241 9.32452L16.2578 9.10933L17.6985 22.612L15.6817 22.8272L14.241 9.32452ZM22.7625 13.8846C21.6571 12.7792 19.8584 12.7792 18.7529 13.8846C18.2175 14.4201 17.9225 15.1321 17.9225 15.8894C17.9225 16.6467 18.2174 17.3587 18.7529 17.8942C19.3057 18.4468 20.0316 18.7232 20.7577 18.7232C21.4837 18.7232 22.2097 18.4468 22.7625 17.8941C23.2981 17.3586 23.5929 16.6466 23.5929 15.8893C23.5929 15.1321 23.2979 14.42 22.7625 13.8846ZM21.3285 16.4601C21.0138 16.7748 20.5017 16.7748 20.187 16.4601C20.0346 16.3076 19.9506 16.105 19.9506 15.8894C19.9506 15.6738 20.0346 15.4712 20.187 15.3187C20.5018 15.0041 21.0138 15.004 21.3285 15.3187C21.4809 15.4712 21.5649 15.6738 21.5649 15.8893C21.5649 16.1049 21.4809 16.3076 21.3285 16.4601ZM13.196 14.0548C12.0906 12.9494 10.292 12.9493 9.18649 14.0549C8.65104 14.5904 8.35605 15.3024 8.35605 16.0596C8.35605 16.8169 8.65098 17.529 9.18649 18.0644C9.72201 18.5999 10.434 18.8948 11.1913 18.8948C11.9485 18.8948 12.6606 18.5999 13.196 18.0644C14.3015 16.9589 14.3015 15.1603 13.196 14.0548ZM11.7621 16.6303C11.6096 16.7828 11.407 16.8667 11.1914 16.8667C10.9758 16.8667 10.7731 16.7828 10.6208 16.6303C10.4683 16.4779 10.3843 16.2753 10.3843 16.0597C10.3843 15.8441 10.4683 15.6414 10.6208 15.489C10.7781 15.3316 10.9848 15.253 11.1915 15.253C11.3981 15.253 11.6048 15.3317 11.7621 15.489C12.0767 15.8036 12.0767 16.3156 11.7621 16.6303Z" fill="white"/>
</g>
</svg>
