<svg width="32" height="22" viewBox="0 0 32 22" fill="none" xmlns="http://www.w3.org/2000/svg">
<path fill-rule="evenodd" clip-rule="evenodd" d="M32 0H0V11.0306H2.23853C1.40039 12.1107 1.48315 13.6629 2.48877 14.6486C2.99756 15.1477 3.65454 15.4151 4.32202 15.451C4.35864 16.1055 4.63135 16.7497 5.14038 17.2488C5.64917 17.7477 6.30615 18.015 6.97363 18.0509C7.01025 18.7054 7.28296 19.3496 7.79199 19.8487C8.72607 20.7646 10.125 20.8857 11.177 20.2939C11.3135 20.6044 11.511 20.8953 11.7695 21.1485C12.866 22.2238 14.6504 22.2238 15.7468 21.1485L16.0005 20.9L16.0112 20.9108C17.0972 21.9753 18.8665 21.9753 19.9556 20.9111L19.9832 20.884C20.2148 20.6578 20.4009 20.3985 20.5366 20.117C21.634 20.9125 23.1973 20.8278 24.1958 19.8484C24.6904 19.3637 24.9778 18.7298 25.0151 18.0505C25.6824 18.0143 26.3389 17.7472 26.8474 17.2485C27.3562 16.7499 27.6284 16.1062 27.6653 15.452C28.3582 15.4154 29.0046 15.1336 29.499 14.6486C30.5107 13.6569 30.5876 12.1071 29.7498 11.0304H32V0ZM3.81445 13.3488C3.44897 12.9904 3.44897 12.4073 3.81445 12.0487L4.85278 11.0306H5.927C6.19556 11.292 6.46606 11.5558 6.71802 11.8019L5.14038 13.3488C4.77393 13.7081 4.18091 13.7081 3.81445 13.3488ZM6.46606 14.6489C6.10059 15.0072 6.10059 15.5904 6.46606 15.9487C6.83154 16.3071 7.42627 16.3071 7.79199 15.9487L9.37109 14.4004L8.04541 13.1003L6.46606 14.6489ZM10.4436 18.5486C10.0771 18.9079 9.48413 18.9079 9.11792 18.5486C8.7522 18.1903 8.7522 17.6071 9.11792 17.2488L10.697 15.7002L12.0229 17.0003C10.3594 18.6314 10.4342 18.558 10.4685 18.5242L10.4686 18.5242L10.4692 18.5236C10.4788 18.5141 10.4842 18.5088 10.4436 18.5486ZM13.0952 19.8487C13.4607 20.207 14.0554 20.207 14.4211 19.8487L14.6743 19.6002L13.3486 18.3001L13.0928 18.551C12.7297 18.9096 12.7305 19.4911 13.0952 19.8487ZM28.1733 13.3488C27.8069 13.7079 27.2139 13.7081 26.8474 13.3488L21.7051 8.30673L20.3792 9.60657L25.5217 14.6486C25.8872 15.0072 25.8872 15.5904 25.5217 15.9487C25.156 16.3071 24.5613 16.3071 24.1958 15.9487L19.0535 10.9066L17.7275 12.2065L22.8701 17.2488C23.2363 17.6081 23.2363 18.1893 22.8701 18.5489C22.5044 18.907 21.9097 18.9072 21.5442 18.5489L16.4019 13.5065L15.0759 14.8066L18.6565 18.3174C19.0178 18.6717 19.0142 19.2356 18.6609 19.5811L18.6321 19.6091C18.2739 19.959 17.6931 19.9598 17.3372 19.611C15.5469 17.8574 14.2942 16.6282 13.1888 15.5435L13.1887 15.5434C11.2653 13.6559 9.78763 12.2059 6.69897 9.1922H1.875V1.83844H10.0229L5.80322 5.97589L7.79199 7.92588C8.89087 9.00357 10.6702 9.00381 11.7695 7.92588L14.0537 5.68624C16.4485 7.37076 19.656 7.64078 22.3308 6.32036L28.1733 12.0487C28.5396 12.408 28.5398 12.9895 28.1733 13.3488ZM27.9116 9.1922H30.125V1.83844H12.6746L8.45483 5.97589L9.11792 6.6258C9.48413 6.98511 10.0771 6.98511 10.4436 6.6258L13.9495 3.18831L14.6106 3.76976C16.644 5.55889 19.6804 5.81742 21.9944 4.39837L22.627 4.01058L27.9116 9.1922Z" fill="white"/>
</svg>
