<?xml version="1.0" encoding="UTF-8"?>
<svg width="36px" height="30px" viewBox="0 0 36 30" version="1.1" xmlns="http://www.w3.org/2000/svg" xmlns:xlink="http://www.w3.org/1999/xlink">
    <!-- Generator: Sketch 61.2 (89653) - https://sketch.com -->
    <title>delivery-truck</title>
    <desc>Created with Sketch.</desc>
    <g id="Page-1" stroke="none" stroke-width="1" fill="none" fill-rule="evenodd">
        <g id="aqua-pro" transform="translate(-792.000000, -1130.000000)" fill="#FFFFFF" fill-rule="nonzero">
            <g id="03" transform="translate(375.000000, 890.000000)">
                <g id="5" transform="translate(400.000000, 220.000000)">
                    <g id="icon">
                        <g id="delivery-truck" transform="translate(17.000000, 20.000000)">
                            <path d="M34.3304297,14.2091016 L31.1691094,9.78314063 C30.3369609,8.61771094 28.9849922,7.92189844 27.5526563,7.92189844 L24.7031016,7.92189844 L24.7031016,1.06875 C24.7031016,0.48628125 24.2308828,0.0140625 23.6484141,0.0140625 L1.0546875,0.0140625 C0.47221875,0.0140625 0,0.48628125 0,1.06875 L0,24.7921875 C0,25.3746563 0.47221875,25.846875 1.0546875,25.846875 L4.64625,25.846875 C5.12107031,27.7895391 6.87557813,29.2359375 8.96252344,29.2359375 C11.0494687,29.2359375 12.8039766,27.7895391 13.2787969,25.846875 L22.7212734,25.846875 C23.1960937,27.7895391 24.9506016,29.2359375 27.0375469,29.2359375 C29.1244922,29.2359375 30.879,27.7895391 31.3538203,25.846875 L34.9453125,25.846875 C35.5277812,25.846875 36,25.3746563 36,24.7921875 L36,19.4182734 C36,17.539875 35.4226641,15.7386094 34.3304297,14.2091016 Z M8.96252344,27.1265625 C7.6753125,27.1265625 6.62814844,26.0793281 6.62814844,24.7921875 C6.62814844,23.5050469 7.67538281,22.4578828 8.96252344,22.4578828 C10.2496641,22.4578828 11.2968984,23.5051172 11.2968984,24.7921875 C11.2968984,26.0793281 10.2496641,27.1265625 8.96252344,27.1265625 L8.96252344,27.1265625 Z M22.5937266,23.7375 L13.2798516,23.7375 C12.8051016,21.794625 11.0495391,20.3485078 8.96252344,20.3485078 C6.87550781,20.3485078 5.11994531,21.794625 4.64526562,23.7375 L2.109375,23.7375 L2.109375,2.1234375 L22.5937266,2.1234375 L22.5937266,23.7375 Z M27.0374766,27.1265625 C25.7502656,27.1265625 24.7031016,26.0793281 24.7031016,24.7921875 C24.7031016,23.5050469 25.7503359,22.4578828 27.0374766,22.4578828 C28.3246172,22.4578828 29.3718516,23.5051172 29.3718516,24.7921875 C29.3718516,26.0793281 28.3246875,27.1265625 27.0374766,27.1265625 Z M33.890625,23.7375 L31.354875,23.7375 C30.880125,21.794625 29.1245625,20.3485078 27.0375469,20.3485078 C26.1819141,20.3485078 25.3818984,20.5916484 24.7031719,21.0123281 L24.7031719,10.0312734 L27.5527266,10.0312734 C28.3052109,10.0312734 29.0154375,10.3966875 29.4526406,11.0091094 L32.6138906,15.4350703 C33.4491328,16.6046484 33.890625,17.982 33.890625,19.4182734 L33.890625,23.7375 Z" id="Shape"></path>
                        </g>
                    </g>
                </g>
            </g>
        </g>
    </g>
</svg>