<svg width="32" height="32" viewBox="0 0 32 32" fill="none" xmlns="http://www.w3.org/2000/svg">
<path fill-rule="evenodd" clip-rule="evenodd" d="M6.94596 18.9232C10.776 18.9232 13.8919 15.7555 13.8919 11.862C13.8919 10.3303 13.4174 8.87308 12.5187 7.6464L6.94596 0.0644531L1.37234 7.64766C0.47458 8.87302 0 10.3303 0 11.862C0 15.7555 3.11595 18.9232 6.94596 18.9232ZM2.94269 8.83856L6.94596 3.39192L10.9484 8.8373C11.5924 9.7163 11.9327 10.7622 11.9327 11.8619C11.9327 14.6573 9.69567 16.9314 6.94596 16.9314C4.19624 16.9314 1.95918 14.6573 1.95918 11.862C1.95918 10.7622 2.29956 9.7163 2.94269 8.83856ZM22.0156 13.6322C21.5612 13.6322 20.7999 13.9528 20.4787 14.2794L11.871 23.03C11.3618 23.5477 11.3618 24.39 11.871 24.9077C12.1177 25.1585 12.4457 25.2967 12.7946 25.2967C13.1436 25.2967 13.4715 25.1585 13.7182 24.9077L20.7512 17.7581L22.1365 19.1665L15.1035 26.3161C14.4872 26.9427 13.6677 27.288 12.796 27.2884H3.26531C2.54511 27.2884 1.95918 27.884 1.95918 28.6162C1.95918 29.3483 2.54511 29.944 3.26531 29.944H15.9623L28.5202 21.039H32V23.0307H29.136L16.5781 31.9357H3.26531C1.46482 31.9357 0 30.4465 0 28.6162C0 26.7858 1.46482 25.2967 3.26531 25.2967H9.80291C9.283 24.082 9.50994 22.6136 10.4857 21.6216L19.0933 12.8712C19.7833 12.1696 21.0397 11.6406 22.0156 11.6406L32 11.6406V13.6323L22.0156 13.6322Z" fill="white"/>
</svg>
