<svg width="24" height="24" viewBox="0 0 24 24" fill="none" xmlns="http://www.w3.org/2000/svg">
<path fill-rule="evenodd" clip-rule="evenodd" d="M12 24C18.6274 24 24 18.6274 24 12C24 5.37258 18.6274 0 12 0C5.37258 0 0 5.37258 0 12C0 18.6274 5.37258 24 12 24Z" fill="white"/>
<path fill-rule="evenodd" clip-rule="evenodd" d="M19.7125 10.0806C19.706 10.1135 19.7015 10.1467 19.6971 10.1799C19.6881 10.2468 19.6792 10.3133 19.6535 10.3759C19.5075 10.7284 19.28 11.0419 19.0528 11.3551L19.0528 11.3551C18.9257 11.5302 18.7988 11.7052 18.6862 11.8868C18.2816 12.5332 14.8444 11.1403 15.2873 10.2772C15.3403 10.176 15.4419 10.0181 15.5575 9.83853L15.5575 9.83852C15.8064 9.45194 16.1204 8.96433 16.1541 8.72244C16.1989 8.40655 15.7801 8.15878 15.3934 8.12678C14.6732 8.06868 13.8113 8.08876 12.9856 8.10799C12.642 8.11599 12.3046 8.12385 11.9863 8.12587V8.12678C11.9575 8.12678 11.9255 8.12678 11.8963 8.12632C11.8665 8.12678 11.8345 8.12678 11.8062 8.12678V8.12587C11.4877 8.12385 11.1503 8.11599 10.8066 8.10798C9.98102 8.08875 9.11953 8.06868 8.39912 8.12678C8.01237 8.15878 7.59363 8.40655 7.63843 8.7229C7.67183 8.96482 7.98597 9.45253 8.23499 9.83914L8.235 9.83915C8.35065 10.0187 8.45226 10.1764 8.50517 10.2776C8.94906 11.1407 5.51043 12.5336 5.10586 11.8872C4.99374 11.7068 4.86763 11.5329 4.74143 11.3588C4.5136 11.0446 4.28551 10.73 4.139 10.3764C4.11327 10.3136 4.10417 10.2467 4.09505 10.1797C4.09055 10.1467 4.08606 10.1136 4.07957 10.0811C3.57534 7.82735 5.51912 5.52792 8.44574 5.2925C9.56392 5.20152 10.6844 5.15032 11.8062 5.13067V5.12427C11.8183 5.12463 11.8304 5.12515 11.8424 5.12566L11.8424 5.12566L11.8424 5.12566C11.8603 5.12643 11.8782 5.12719 11.8963 5.12747C11.9143 5.12719 11.9322 5.12643 11.9501 5.12566L11.9501 5.12566C11.9622 5.12515 11.9742 5.12463 11.9863 5.12427V5.13021C13.1077 5.15032 14.2281 5.20107 15.3463 5.29204C18.2734 5.52747 20.2172 7.82781 19.7125 10.0806ZM17.7029 17.8566C17.7344 18.3974 17.3815 18.8386 16.9152 18.8386H6.87683C6.41192 18.8386 6.05763 18.3965 6.08963 17.8566L6.38266 12.9272C7.44643 12.6781 8.80597 12.0271 9.29923 11.2189C9.57397 10.7686 9.60323 10.2616 9.3774 9.82232C9.32026 9.71261 9.21329 9.54118 9.09032 9.3501L9.08986 9.34918L9.08589 9.33987L9.08346 9.33455H14.5477C14.5459 9.33965 14.5449 9.342 14.5431 9.3461L14.5395 9.35467C14.4709 9.5197 14.4476 9.64632 14.4604 9.74187C14.4537 9.75382 14.4459 9.76711 14.4382 9.7802L14.4381 9.78023L14.4381 9.78024C14.4279 9.79768 14.4178 9.81476 14.411 9.82781C14.1879 10.2612 14.2172 10.7686 14.4919 11.2184C14.9852 12.0276 16.3438 12.6772 17.4076 12.9263L17.7029 17.8566ZM10.0009 12.7403C11.0537 11.6884 12.7639 11.6884 13.8163 12.7403C14.7653 13.6898 14.8553 15.1746 14.0901 16.2287L13.4295 15.5682C13.8451 14.8824 13.7614 13.9782 13.1699 13.3867C12.4741 12.6914 11.3431 12.6914 10.6478 13.3867C9.95203 14.0824 9.95203 15.2134 10.6473 15.9087C11.2416 16.5035 12.1523 16.5858 12.8389 16.1643L13.4985 16.823C12.4444 17.5942 10.9532 17.5074 10.0009 16.5551C8.94906 15.5032 8.94906 13.7922 10.0009 12.7403Z" fill="#31519F"/>
</svg>
