<svg width="24" height="24" viewBox="0 0 24 24" fill="none" xmlns="http://www.w3.org/2000/svg">
<path fill-rule="evenodd" clip-rule="evenodd" d="M12 22C18.0751 22 23 17.0751 23 11C23 4.92487 18.0751 0 12 0C5.92487 0 1 4.92487 1 11C1 17.0751 5.92487 22 12 22Z" fill="white"/>
<path d="M17.1988 1.1822C14.9911 1.49555 13.2819 3.55371 13.2392 6.06053C16.2944 6.62315 18.6018 8.67418 18.6018 12.3347C18.6018 15.8671 15.6677 18.7228 12 18.7228C8.35371 18.73 5.39822 15.5252 5.39822 11.3733C5.39822 5.64748 10.4831 0.897329 16.9139 1.04688C15.4113 0.377448 13.7519 0 12 0C5.37685 0 0 5.36973 0 12C0 18.6303 5.37685 24 12 24C18.6231 24 24 18.6303 24 12C24 7.23561 21.2226 3.11929 17.1988 1.1822Z" fill="#F91600"/>
</svg>
