<svg width="24" height="24" viewBox="0 0 24 24" fill="none" xmlns="http://www.w3.org/2000/svg">
<path fill-rule="evenodd" clip-rule="evenodd" d="M12 24C18.6274 24 24 18.6274 24 12C24 5.37258 18.6274 0 12 0C5.37258 0 0 5.37258 0 12C0 18.6274 5.37258 24 12 24Z" fill="white"/>
<path fill-rule="evenodd" clip-rule="evenodd" d="M0 12C0 5.37069 5.37205 0 11.9979 0C18.6291 0 24 5.37069 24 12C24 18.6299 18.6291 24 11.9979 24C10.6895 24 9.43166 23.7898 8.25343 23.406C9.10667 18.453 12.2335 14.4141 16.3663 12.6994C16.8573 13.267 17.5801 13.6241 18.3869 13.6241C19.859 13.6241 21.0516 12.4299 21.0516 10.9548C21.0516 9.48104 19.859 8.28624 18.3869 8.28624C16.9133 8.28624 15.721 9.47732 15.718 10.9496C10.4444 12.5358 6.17151 16.2175 4.00281 20.9491C3.31334 20.3335 2.6989 19.6401 2.1689 18.8826C2.2931 14.2748 4.57189 10.248 7.98514 7.87481C8.47479 8.42563 9.18659 8.77289 9.97999 8.77289C11.4536 8.77289 12.6472 7.57456 12.6472 6.10283C12.6472 4.62738 11.4536 3.43375 9.97999 3.43375C8.50467 3.43375 7.31106 4.62738 7.31106 6.10283C7.31106 6.18002 7.31634 6.25898 7.32252 6.33186C4.14337 7.44722 1.53467 9.65394 0.00822777 12.4652C0.000783597 12.3131 0 12.1555 0 12Z" fill="#F5BB29"/>
</svg>
