<svg width="24" height="24" viewBox="0 0 24 24" fill="none" xmlns="http://www.w3.org/2000/svg">
<path fill-rule="evenodd" clip-rule="evenodd" d="M12 24C18.6274 24 24 18.6274 24 12C24 5.37258 18.6274 0 12 0C5.37258 0 0 5.37258 0 12C0 18.6274 5.37258 24 12 24Z" fill="#9C5CC0"/>
<path fill-rule="evenodd" clip-rule="evenodd" d="M19.5739 8.71279L19.5786 8.73174C20.0523 10.8949 20.0523 13.0886 19.5786 15.2518L19.5739 15.2707C19.1907 16.8197 17.4633 18.4818 15.877 18.8276L15.8591 18.8313C14.5765 19.076 13.2844 19.1981 11.9928 19.1981C11.6127 19.1981 11.2325 19.1863 10.8525 19.165L9.10071 20.986C8.66702 21.4376 7.90439 21.1302 7.90439 20.5044V18.7754C6.37728 18.3393 4.77855 16.7535 4.41123 15.2707L4.40702 15.2517C3.93334 13.0886 3.93334 10.8949 4.40702 8.73174L4.41123 8.71279C4.79492 7.16384 6.52228 5.50174 8.10807 5.15595L8.12649 5.15226C10.6918 4.66279 13.2933 4.66279 15.8591 5.15226L15.877 5.15595C17.4633 5.50174 19.1907 7.16384 19.5739 8.71279ZM15.5828 17.437C16.6249 17.2049 17.9365 15.9486 18.1923 14.9381C18.6191 12.9828 18.6191 11.0007 18.1923 9.04537C17.9365 8.03484 16.6254 6.77852 15.5828 6.54642C13.2007 6.09326 10.7849 6.09326 8.40228 6.54642C7.36018 6.77852 6.04913 8.03484 5.79281 9.04537C5.36649 11.0006 5.36649 12.9827 5.79281 14.938C6.04913 15.9485 7.36018 17.2048 8.40228 17.4369L8.40307 17.4371C8.44955 17.4462 8.48334 17.4864 8.48334 17.5337V20.3981C8.48334 20.5412 8.65807 20.6117 8.75755 20.5081L10.1181 19.1117L11.3972 17.7987C11.4162 17.7791 11.4425 17.7685 11.4698 17.7693C12.8435 17.8073 14.2185 17.6964 15.5828 17.437ZM14.1073 16.2168L14.1072 16.2167C14.0022 16.1878 13.9011 16.1599 13.805 16.1201C12.3358 15.5105 10.9835 14.7241 9.91244 13.5185C9.30334 12.833 8.8266 12.0591 8.4236 11.24C8.25225 10.8917 8.10505 10.5312 7.95812 10.1714L7.95812 10.1713L7.95812 10.1713L7.95812 10.1713L7.90728 10.0469C7.7576 9.68126 7.97807 9.30347 8.21023 9.02795C8.42807 8.76937 8.70839 8.57147 9.01197 8.42563C9.24892 8.31179 9.48265 8.37742 9.65571 8.57826C10.0298 9.01247 10.3734 9.46889 10.6517 9.97221C10.8228 10.2818 10.7759 10.6602 10.4658 10.8709C10.4052 10.912 10.3489 10.9589 10.2927 11.0058L10.2515 11.0401C10.1899 11.0907 10.132 11.1419 10.0898 11.2106C10.0126 11.3362 10.0089 11.4843 10.0586 11.6208C10.441 12.6717 11.0856 13.4889 12.1434 13.9291L12.1886 13.9481C12.3431 14.0133 12.5 14.0795 12.6777 14.0588C12.889 14.0341 13.0078 13.8754 13.1274 13.7158C13.1926 13.6287 13.258 13.5413 13.3388 13.4753C13.5625 13.2924 13.8483 13.2899 14.0893 13.4424C14.3303 13.5949 14.5639 13.7587 14.7961 13.9242L14.8431 13.9576C15.0552 14.1085 15.2655 14.2582 15.4613 14.4306C15.6634 14.6087 15.7331 14.8423 15.6192 15.0839C15.4108 15.5264 15.1075 15.8946 14.6701 16.1296C14.5856 16.1749 14.4899 16.1993 14.3932 16.2239L14.3932 16.2239C14.3485 16.2352 14.3037 16.2467 14.2597 16.2602C14.2081 16.2445 14.1572 16.2305 14.1073 16.2168ZM15.8354 11.1489C15.4971 9.24889 13.9187 7.97347 11.9968 7.91963L11.9644 7.91924H11.9644C11.938 7.91881 11.9116 7.91838 11.8853 7.91984C11.749 7.92716 11.6282 8.0411 11.6538 8.18421C11.6825 8.34545 11.8446 8.36179 11.9782 8.37526L12.0013 8.37763C12.0689 8.38472 12.1367 8.39057 12.2044 8.39643L12.2044 8.39643L12.2044 8.39643C12.3546 8.4094 12.5047 8.42237 12.6524 8.44874C14.0774 8.70289 15.219 9.88731 15.418 11.3189C15.448 11.5353 15.4628 11.7538 15.4777 11.9721L15.4777 11.9722L15.4777 11.9723C15.4814 12.0277 15.4852 12.083 15.4892 12.1383C15.4992 12.2765 15.5685 12.4054 15.7225 12.4035C15.8717 12.4017 15.95 12.2704 15.9392 12.1322L15.9299 12.0107C15.9079 11.7222 15.8859 11.4328 15.8354 11.1489ZM14.9174 11.7057C14.9166 11.7118 14.9159 11.7199 14.9151 11.7296C14.9126 11.7581 14.909 11.7996 14.8985 11.8393C14.8475 12.0323 14.555 12.0564 14.4877 11.8617C14.4677 11.8039 14.4647 11.7382 14.4646 11.6759C14.4639 11.2689 14.3754 10.8623 14.1702 10.5081C13.9592 10.1441 13.6368 9.8381 13.2587 9.65295C13.0301 9.541 12.7828 9.47142 12.5322 9.42995C12.464 9.41867 12.3954 9.41016 12.3268 9.40164L12.3267 9.40164C12.2851 9.39647 12.2435 9.3913 12.202 9.38552C12.0686 9.367 11.9974 9.282 12.0037 9.15058C12.0096 9.02742 12.0996 8.93884 12.2338 8.94642C12.6749 8.97147 13.1009 9.06679 13.493 9.27442C14.2903 9.69668 14.7458 10.3632 14.8788 11.2532C14.8809 11.2676 14.8835 11.282 14.8861 11.2964C14.8908 11.3222 14.8955 11.348 14.8975 11.3739C14.9028 11.4442 14.9067 11.5144 14.9112 11.5957L14.9112 11.5958L14.9174 11.7057ZM13.4587 11.4257C13.4752 11.5731 13.5613 11.6621 13.7221 11.6592C13.7953 11.6543 13.8703 11.6035 13.8939 11.5021C13.9072 11.4448 13.9017 11.3816 13.8964 11.3215L13.8959 11.3156C13.8199 10.4384 13.2874 10.0532 12.5423 9.99942C12.4231 9.99079 12.3169 10.0759 12.2987 10.1851C12.2785 10.3049 12.3492 10.4084 12.477 10.4397C12.5322 10.4532 12.5884 10.4584 12.6446 10.4635C12.7085 10.4693 12.7724 10.4752 12.8351 10.4933C12.928 10.5201 13.0166 10.5616 13.0948 10.6186C13.2605 10.7393 13.3652 10.9218 13.4135 11.1187C13.4346 11.2048 13.4443 11.294 13.4539 11.3827C13.4555 11.397 13.457 11.4114 13.4587 11.4257Z" fill="white"/>
</svg>
