<svg width="24" height="24" viewBox="0 0 24 24" fill="none" xmlns="http://www.w3.org/2000/svg">
<path fill-rule="evenodd" clip-rule="evenodd" d="M12 24C18.6274 24 24 18.6274 24 12C24 5.37258 18.6274 0 12 0C5.37258 0 0 5.37258 0 12C0 18.6274 5.37258 24 12 24Z" fill="#3AADE3"/>
<path fill-rule="evenodd" clip-rule="evenodd" d="M11.9671 4C12.5435 4 13.0154 4.47189 13.0154 5.04834V8.94558C13.0154 9.52225 12.5435 9.99392 11.9671 9.99392C11.3904 9.99392 10.9187 9.52225 10.9187 8.94558V5.04834C10.9187 4.47189 11.3904 4 11.9671 4ZM4.05114 9.75144C4.22939 9.20316 4.82365 8.90028 5.37215 9.07831L9.07852 10.2828C9.6268 10.4608 9.92968 11.0553 9.75142 11.6036C9.57339 12.1521 8.97891 12.455 8.43063 12.2767L4.72427 11.0725C4.17576 10.8942 3.87289 10.2999 4.05114 9.75144ZM6.84303 17.593C6.5041 18.0595 6.60844 18.7182 7.07491 19.0571C7.54139 19.3963 8.20032 19.2917 8.53925 18.8252L10.83 15.6726C11.1687 15.2061 11.0643 14.5472 10.5978 14.2082C10.1314 13.8693 9.47244 13.9736 9.13373 14.4401L6.84303 17.593ZM16.8595 19.0571C16.393 19.3961 15.7341 19.2917 15.3951 18.8252L13.1047 15.6723C12.7655 15.2059 12.8701 14.5469 13.3365 14.208C13.803 13.8691 14.462 13.9734 14.8009 14.4399L17.0914 17.5928C17.4303 18.0593 17.326 18.7182 16.8595 19.0571ZM19.2099 11.0722C19.7584 10.8942 20.0613 10.2997 19.883 9.75121C19.7048 9.20293 19.1105 8.90006 18.562 9.07831L14.8556 10.2824C14.3074 10.4606 14.0045 11.0551 14.1825 11.6034C14.3608 12.1519 14.9553 12.4548 15.5035 12.2765L19.2099 11.0722Z" fill="#FFFFFE"/>
</svg>
