<svg width="9" height="20" viewBox="0 0 9 20" fill="none" xmlns="http://www.w3.org/2000/svg">
<g id="facebook-letter-logo">
<path id="Facebook" d="M1.96425 3.86538C1.96425 4.36835 1.96425 6.61332 1.96425 6.61332H0.03125V9.9735H1.96425V19.9588H5.93503V9.97378H8.59961C8.59961 9.97378 8.84916 8.3626 8.97012 6.60093C8.62331 6.60093 5.95004 6.60093 5.95004 6.60093C5.95004 6.60093 5.95004 4.64608 5.95004 4.30343C5.95004 3.96005 6.38298 3.49814 6.81088 3.49814C7.23798 3.49814 8.1394 3.49814 8.97431 3.49814C8.97431 3.04065 8.97431 1.45991 8.97431 0C7.85973 0 6.59172 0 6.03278 0C1.86609 -0.000232019 1.96425 3.36329 1.96425 3.86538Z" fill="white"/>
</g>
</svg>
