<svg width="14" height="12" viewBox="0 0 14 12" fill="none" xmlns="http://www.w3.org/2000/svg">
<path fill-rule="evenodd" clip-rule="evenodd" d="M3.47316 6.93641L0.247281 5.75473C-0.0803654 5.63423 -0.083212 5.18024 0.243501 5.05658L13.4826 0.044015C13.7633 -0.0625194 14.0529 0.178809 13.9917 0.468091L11.6159 11.6845C11.5599 11.9493 11.2435 12.0694 11.0202 11.9101L7.77699 9.59908C7.58001 9.45875 7.31154 9.46626 7.12305 9.61699L5.32489 11.0557C5.11615 11.2232 4.80167 11.1299 4.72177 10.8775L3.47316 6.93641ZM10.8251 2.49637L4.52055 6.30737C4.27891 6.45376 4.16513 6.74015 4.24321 7.00827L4.92487 9.35904C4.97326 9.52562 5.21961 9.50853 5.24309 9.33641L5.42033 8.04728C5.45374 7.80458 5.57171 7.58098 5.7546 7.41389L10.9577 2.66702C11.055 2.57844 10.9384 2.42808 10.8251 2.49637Z" fill="#202020"/>
</svg>
