<svg width="14" height="14" viewBox="0 0 14 14" fill="none" xmlns="http://www.w3.org/2000/svg">
<path fill-rule="evenodd" clip-rule="evenodd" d="M7.8277 1.12789C7.78289 1.12121 7.72908 1.1174 7.67223 1.11341L7.6721 1.1134C7.43673 1.09671 6.94727 1.062 6.97624 0.570056C6.98882 0.357152 7.08708 0 7.60397 0C7.66165 0 7.71855 0.00376974 7.76896 0.0071093L7.77157 0.00728173L7.77774 0.00768802C7.81767 0.0103162 7.85519 0.0127864 7.88598 0.0127864C7.90622 0.0127864 7.91803 0.0116594 7.92441 0.0107492C7.93738 0.00897214 7.95022 0.00827864 7.96369 0.00871207C11.2094 0.115207 14.0215 2.97897 13.9814 6.13707C13.9808 6.17869 13.983 6.22611 13.9853 6.27647L13.9854 6.27928C13.9951 6.4888 14.0072 6.74952 13.8346 6.92502C13.7357 7.02566 13.5974 7.07663 13.4235 7.07663L13.4063 7.07646C12.8519 7.06606 12.8436 6.56436 12.8396 6.32306L12.8396 6.32293C12.8385 6.25514 12.8374 6.19112 12.8306 6.13863C12.4289 3.05074 10.9794 1.59908 7.8277 1.12789ZM8.2597 1.83569C10.3959 2.08513 12.1199 3.88901 12.1026 5.85672C12.1026 5.86578 12.1019 5.87484 12.1006 5.88386C12.0957 5.91955 12.0976 5.97317 12.0996 6.02989L12.0996 6.0304C12.1067 6.23247 12.1216 6.65303 11.6477 6.72303C11.6003 6.73006 11.5548 6.73361 11.5125 6.73361H11.5124C11.0036 6.73361 10.9749 6.27352 10.9611 6.05238L10.9611 6.052L10.9611 6.05193C10.9574 5.99302 10.9539 5.93749 10.9462 5.8924C10.6304 4.0424 9.9841 3.38692 8.06476 2.96999C8.01855 2.9599 7.96358 2.95253 7.90525 2.9447L7.9006 2.94407C7.69568 2.91681 7.44056 2.88279 7.29557 2.69112C7.20938 2.57717 7.1808 2.43158 7.21076 2.2582C7.24157 2.07989 7.35861 1.7809 7.79645 1.7809C7.9068 1.7809 8.01617 1.79841 8.12192 1.81545L8.12227 1.8155C8.17114 1.82337 8.2173 1.8308 8.2597 1.83569ZM12.6785 10.1295C12.6115 10.0798 12.5422 10.0283 12.4773 9.97749C12.1333 9.70839 11.7674 9.46033 11.4134 9.22042L11.4134 9.2204L11.413 9.22015C11.3396 9.17039 11.2661 9.12059 11.1929 9.07066C10.7393 8.76097 10.3316 8.61048 9.94638 8.61048C9.42754 8.61048 8.97517 8.88918 8.6018 9.43873C8.43639 9.68237 8.23571 9.80082 7.98839 9.80082C7.84215 9.80082 7.67598 9.76025 7.49455 9.6802C6.03066 9.03485 4.98534 8.04541 4.38758 6.73933C4.09862 6.10807 4.19229 5.69544 4.70084 5.35962C4.98962 5.16908 5.52715 4.81435 5.48908 4.13507C5.44596 3.36368 3.69516 1.04267 2.95748 0.779059C2.64516 0.667406 2.31701 0.666365 1.98038 0.776458C1.13236 1.0536 0.523803 1.5403 0.220351 2.18387C-0.0728908 2.80572 -0.0596488 3.53589 0.258651 4.29544C1.17882 6.49149 2.47252 8.40615 4.10397 9.98616C5.70086 11.5328 7.66358 12.7998 9.93756 13.7516C10.1425 13.8374 10.3575 13.8841 10.5145 13.9183L10.5259 13.9208C10.5746 13.9314 10.6166 13.9406 10.6479 13.9489C10.6664 13.9538 10.6854 13.9564 10.7046 13.9566L10.7225 13.9567H10.7226C11.7922 13.9567 13.0764 13.0066 13.4708 11.9234C13.8163 10.975 13.1854 10.5062 12.6785 10.1295ZM8.14501 3.62198L8.14529 3.62197C8.6307 3.61057 9.16434 3.85672 9.60704 4.2938C10.0482 4.72953 10.3076 5.27657 10.3019 5.75842C10.3176 6.22012 10.1444 6.47519 9.7873 6.5165C9.76496 6.51915 9.74254 6.5204 9.7206 6.5204H9.72055C9.42361 6.5204 9.19234 6.28726 9.1581 5.95338C9.0844 5.23734 8.71594 4.85167 7.99851 4.73976C7.80068 4.70877 7.58319 4.65229 7.46968 4.46799C7.39232 4.34238 7.38483 4.18929 7.44738 4.01297C7.58103 3.63586 7.96178 3.62649 8.14501 3.62198Z" fill="#202020"/>
</svg>
